<?xml version="1.0"?><svg fill="#000000" xmlns="http://www.w3.org/2000/svg"  viewBox="0 0 30 30" width="50px" height="50px">    <path d="M 7 4 C 6.447 4 6 4.448 6 5 C 6 5.552 6.447 6 7 6 L 8 6 L 8 24 L 7 24 C 6.447 24 6 24.448 6 25 C 6 25.552 6.447 26 7 26 L 18.5 26 C 22.084 26 25 23.084 25 19.5 C 25 16.869 23.426828 14.604031 21.173828 13.582031 C 22.292828 12.574031 23 11.12 23 9.5 C 23 6.467 20.532 4 17.5 4 L 7 4 z M 13 6 L 15.5 6 C 17.43 6 19 7.57 19 9.5 C 19 11.43 17.43 13 15.5 13 L 13 13 L 13 6 z M 13 15 L 14.5 15 L 15.5 15 C 17.981 15 20 17.019 20 19.5 C 20 21.981 17.981 24 15.5 24 L 13 24 L 13 15 z"/></svg>