<?xml version="1.0" encoding="utf-8"?>
<!-- Gfuckator: Adobe Illustrator 16.0.0, SVG Export Plug-In . SVG Version: 6.00 Build 0)  -->
<!DOCTYPE svg PUBLIC "-//W3C//DTD SVG 1.1//EN" "http://www.w3.org/Graphics/SVG/1.1/DTD/svg11.dtd">
<svg version="1.1" id="Layer_1" xmlns="http://www.w3.org/2000/svg" xmlns:xlink="http://www.w3.org/1999/xlink" x="0px" y="0px"
	 width="283.465px" height="283.465px" viewBox="0 0 283.465 283.465" enable-background="new 0 0 283.465 283.465"
	 xml:space="preserve">
<rect x="-651.756" y="-256" fill="#6FC1EB" width="148.82" height="218"/>
<rect x="-502.936" y="-256" fill="#FFFFFF" width="148.82" height="218"/>
<rect x="-354.115" y="-256" fill="#6FC1EB" width="148.82" height="218"/>
<rect x="-205.295" y="-256" fill="#FFFFFF" width="148.82" height="218"/>
<g transform="translate(0.000000,302.000000) scale(0.100000,-0.100000)">
	<g id="XMLID_1_">
		<g>
			<path fill="#8B162D" d="M-2266.504,2008.105c7.002-121.006,1.299-123.105-79.697-129.102l-45-4.004l-2.998,89.004l-3.008,87.998
				l-36.992-6.006c-20-2.998-45-5.996-54.004-5.996c-15.996,0-17.998-10.996-17.998-89.004v-87.998l-31.006-7.002
				c-16.992-2.998-43.994-5.996-60-5.996h-28.994v109.004c0,93.994-2.002,110-17.002,115.996c-17.002,5.996-17.002,7.002,0,15.996
				c15,9.004,17.002,28.003,17.002,179.004v168.999l32.998,5c17.002,3.003,59.004,10,92.002,15
				c120.996,18.003,160.996,13.999,197.002-17.998l16.992-21.802c3.799-6.602,6.699-13.398,7.5-21.499
				c0.107-0.601,0.205-1.201,0.303-1.802c0-0.2,0.205-0.498,0.303-0.698l6.895-112.202c-0.996-70,11.299-150.498-36.201-152.397
				C-2264.307,2124.399-2270.908,2065-2266.504,2008.105z M-2294.199,1914.004l-53.604,207.197
				c-0.898,66.099,50.596,87.798,50.596,153.799c0,67.998-3.994,121.001-10,122.998c-5,2.002-6.992,7.002-3.994,12.002
				c2.998,3.999-1.006,12.002-7.998,17.998c-14.004,11.001-101.006,25-109.004,17.002c-2.998-2.998-32.002-7.998-64.004-10
				c-31.992-2.002-70.996-7.002-86.992-11.001l-28.008-6.001l1.006-90.996c0.996-51.001,2.002-155,0.996-232.002
				c0-227.998-2.002-214.004,27.998-210c14.004,0.996,32.002,2.998,39.004,4.004c7.998,0.996,12.002,22.998,12.002,75
				c0,87.998,7.998,97.998,85,103.994c47.002,4.004,53.994,2.002,65-17.998c5.996-12.002,10.996-42.002,10-67.998
				c-2.998-74.004-2.998-72.998,35.996-70L-2294.199,1914.004z"/>
			<path fill="#8B162D" stroke="#8B162C" stroke-miterlimit="10" d="M-2347.803,2121.201l53.604-207.197l-36.006-2.002
				c-38.994-2.998-38.994-4.004-35.996,70c0.996,25.996-4.004,55.996-10,67.998c-11.006,20-17.998,22.002-65,17.998
				c-77.002-5.996-85-15.996-85-103.994c0-52.002-4.004-74.004-12.002-75c-7.002-1.006-25-3.008-39.004-4.004
				c-30-4.004-27.998-17.998-27.998,210c1.006,77.002,0,181.001-0.996,232.002l-1.006,90.996l28.008,6.001
				c15.996,3.999,55,8.999,86.992,11.001c32.002,2.002,61.006,7.002,64.004,10c7.998,7.998,95-6.001,109.004-17.002
				c6.992-5.996,10.996-13.999,7.998-17.998c-2.998-5-1.006-10,3.994-12.002c6.006-1.997,10-55,10-122.998
				C-2297.207,2208.999-2348.701,2187.3-2347.803,2121.201z M-2449.004,2145c67.002,8.999,80,28.999,80,121.001
				c0,96.997-20,113.999-115,96.001c-40-8.003-45-22.002-45-112.002C-2529.004,2143.999-2522.002,2135-2449.004,2145z"/>
			<path fill="#8B162D" d="M-2369.004,2266.001c0-92.002-12.998-112.002-80-121.001c-72.998-10-80-1.001-80,105
				c0,90,5,103.999,45,112.002C-2389.004,2380-2369.004,2362.998-2369.004,2266.001z M-2466.006,2166.001
				c69.004,8.999,67.002,6.001,67.002,92.998c0,43.999-2.998,81.001-7.002,83.003c-5,1.997-28.994,1.997-55,0l-47.998-3.003v-90
				V2160L-2466.006,2166.001z"/>
			<path fill="#8B162D" d="M-2711.006,2087.998c9.004-7.998,10-12.998,1.006-17.998c-6.006-4.004-12.002-40-14.004-84.004
				c-2.998-80-15.996-112.998-57.998-140.996c-27.998-17.998-114.004-35-182.998-35.996c-86.006-2.002-114.004,30-114.004,130.996
				c0,37.998-5,64.004-14.004,72.998c-10.996,11.006-11.992,17.002-2.998,26.006c7.998,7.998,14.004,62.998,17.002,150.996
				c5,127.998,7.002,140,27.998,162.998c30,32.002,62.002,45,137.002,56.001c110,17.002,167.002-1.997,184.004-61.997
				c5-17.002,7.998-81.001,6.992-140C-2724.004,2127.998-2721.006,2095.996-2711.006,2087.998z M-2764.004,1905.996
				c12.998,14.004,20.996,94.004,17.998,179.004c-0.996,10.996-2.002,68.999-2.998,127.998c-2.998,125-7.002,147.002-27.002,147.002
				c-7.998,0-12.002,3.999-8.994,8.999c2.998,5-1.006,12.002-10,15c-19.004,7.002-95,6.001-150-2.998
				c-28.008-5-53.008-18.003-75-41.001l-34.004-32.998l-2.998-116.001c-4.004-201.997-1.006-303.003,7.998-321.997
				c10.996-20,69.004-42.002,90.996-35c8.008,2.998,43.008,6.992,79.004,10c42.002,2.998,69.004,10.996,75.996,20
				c6.006,8.994,14.004,12.998,17.002,8.994c4.004-2.998,7.002-0.996,7.002,6.006
				C-2779.004,1885.996-2772.002,1897.998-2764.004,1905.996z"/>
			<path fill="#8B162D" stroke="#8B162C" stroke-width="1px" stroke-miterlimit="10" d="M-2746.006,2085c2.998-85-5-165-17.998-179.004
				c-7.998-7.998-15-20-15-26.992c0-7.002-2.998-9.004-7.002-6.006c-2.998,4.004-10.996,0-17.002-8.994
				c-6.992-9.004-33.994-17.002-75.996-20c-35.996-3.008-70.996-7.002-79.004-10c-21.992-7.002-80,15-90.996,35
				c-9.004,18.994-12.002,120-7.998,321.997l2.998,116.001L-3020,2340c21.992,22.998,46.992,36.001,75,41.001
				c55,8.999,130.996,10,150,2.998c8.994-2.998,12.998-10,10-15c-3.008-5,0.996-8.999,8.994-8.999
				c20,0,24.004-22.002,27.002-147.002C-2748.008,2153.999-2747.002,2095.996-2746.006,2085z M-2842.002,1935.996
				c22.002,22.002,22.998,27.002,20,186.006c-1.006,90-6.006,168.999-10,175.996c-12.998,19.004-111.006,16.001-129.004-5
				c-2.803-3.096-5.303-7.3-7.402-13.398c-7.393-21.499-10.693-65.801-14.6-159.6c-4.6-125.4-4.492-174.004,16.201-193.203
				c11.006-10.195,27.803-12.09,52.803-12.793C-2876.006,1912.998-2861.006,1917.998-2842.002,1935.996z"/>
			<path fill="#8B162D" d="M-2822.002,2122.002c2.998-159.004,2.002-164.004-20-186.006c-19.004-17.998-34.004-22.998-72.002-21.992
				c-25,0.703-41.797,2.598-52.803,12.793l7.803,1.201l30.996,6.006c17.002,2.998,42.002,5.996,55,5.996h24.004v175v175
				l-22.002-2.002c-12.998,0-37.998-2.998-55-5l-32.998-3.999l-9.404,0.601c2.1,6.099,4.6,10.303,7.402,13.398
				c17.998,21.001,116.006,24.004,129.004,5C-2828.008,2291.001-2823.008,2212.002-2822.002,2122.002z"/>
			<path fill="#8B162D" d="M-2959.004,2102.998v-175l-7.803-1.201c-20.693,19.199-20.801,67.803-16.201,193.203
				c3.906,93.799,7.207,138.101,14.6,159.6l9.404-0.601V2102.998L-2959.004,2102.998z"/>
			<path fill="#8B162D" d="M-3214.004,1924.004c32.002-74.004,55.996-136.006,54.004-138.008c-2.002-1.992-29.004-6.992-60-10
				l-56.006-6.992l-32.998,77.998c-30.195,70.303-38.799,89.199-50.195,90.303l1.494,18.896c2.9,0,5.4-0.498,7.705-1.201
				c10-2.998,25.996-24.004,35.996-45.996c12.998-29.004,20.996-36.006,27.998-27.002c6.006,8.994,7.002,7.998,2.998-5
				c-2.998-10,1.006-31.006,9.004-47.998c12.002-22.002,22.002-29.004,45-29.004c37.998,0,37.998,10,2.002,90.996
				c-30,67.002-44.004,101.006-46.006,109.004c-0.996,2.998-7.998,15.996-15,27.998c-7.998,15-10,34.004-5,50
				c4.004,15,8.008,32.002,8.008,37.002c0.996,6.001,5,12.998,8.994,16.001c7.002,5,72.998,173.999,80,203.999
				c1.006,5-7.998,11.001-18.994,12.998c-36.006,5-79.004-50.996-70-90.996c2.998-12.002,2.998-16.001-1.006-8.003
				c-2.998,8.999-20-21.997-42.002-78.999c-18.398-47.598-35-80.703-48.896-97.9l-5.4,0.498c2.1,2.803,3.301,7.402,3.301,12.402
				c0,19.004,89.004,255,102.002,272.002c5,6.997,27.998,13.999,50.996,15.996c22.998,2.002,47.998,4.004,55,5
				c6.006,1.001,12.002-0.996,12.002-5c0-5-25-76.997-55.996-160.996l-57.002-152.998L-3214.004,1924.004z"/>
			<path fill="#8B162D" stroke="#8B162C" stroke-miterlimit="10" d="M-3215,2347.998c10.996-1.997,20-7.998,18.994-12.998
				c-7.002-30-72.998-198.999-80-203.999c-3.994-3.003-7.998-10-8.994-16.001c0-5-4.004-22.002-8.008-37.002
				c-5-15.996-2.998-35,5-50c7.002-12.002,14.004-25,15-27.998c2.002-7.998,16.006-42.002,46.006-109.004
				c35.996-80.996,35.996-90.996-2.002-90.996c-22.998,0-32.998,7.002-45,29.004c-7.998,16.992-12.002,37.998-9.004,47.998
				c4.004,12.998,3.008,13.994-2.998,5c-7.002-9.004-15-2.002-27.998,27.002c-10,21.992-25.996,42.998-35.996,45.996
				c-2.305,0.703-4.805,1.201-7.705,1.201c-19.697,1.104-50.596-12.002-52.295-24.199c-1.006-7.998-7.002-116.006-8.008-144.004
				c-0.996-13.994-10-17.998-35.996-17.998h-35l-0.996,97.998c-3.008,226.006,2.998,428.003,12.998,439.004
				c5.996,6.997,20.996,11.997,33.994,10.996c19.004-1.997,24.004-7.998,25-32.998c6.006-168.999,9.004-217.998,14.004-222.998
				c7.002-7.002,16.201-3.408,27.1,10.098c13.896,17.197,30.498,50.303,48.896,97.9c22.002,57.002,39.004,87.998,42.002,78.999
				c4.004-7.998,4.004-3.999,1.006,8.003C-3294.004,2297.002-3251.006,2352.998-3215,2347.998z"/>
			<path fill="#8B162D" d="M-3357.705,1956.201l-1.494-18.896c-3.701,0.391-7.705-1.104-12.803-3.301
				c-14.004-5-17.002-21.006-17.002-90c0-94.004,0.996-93.008-74.004-96.006l-47.998-2.998l1.006,100.996
				c1.992,77.002-1.006,105-12.002,116.006c-12.998,12.002-12.998,17.002,0,33.994c10.996,15,13.994,52.002,12.002,176.006
				c-1.006,86.997-1.006,158.999,1.992,161.997c2.002,2.002,30,7.002,63.008,11.001l57.998,7.002l-4.004-141.001
				c-2.002-78.003,0-141.001,4.004-141.001c1.895,0,3.496,0.996,4.697,2.598l5.4-0.498c-10.898-13.506-20.098-17.099-27.1-10.098
				c-5,5-7.998,53.999-14.004,222.998c-0.996,25-5.996,31.001-25,32.998c-12.998,1.001-27.998-3.999-33.994-10.996
				c-10-11.001-16.006-212.998-12.998-439.004l0.996-97.998h35c25.996,0,35,4.004,35.996,17.998
				c1.006,27.998,7.002,136.006,8.008,144.004C-3408.301,1944.199-3377.402,1957.305-3357.705,1956.201z"/>
			<path fill="#010202" d="M-3596.006,2328.999c11.006,2.002,9.004-13.999-25.996-181.997
				c-32.998-155-32.998-157.998-14.004-172.002c17.998-12.998,17.998-12.998-2.002-20c-21.992-7.002-31.992-35-51.992-150
				c-7.002-37.998-17.002-75-23.008-80.996c-5.996-6.006-33.994-14.004-62.998-17.002l-50.996-6.006l-11.006,47.002
				c-5,26.006-15,72.998-21.992,106.006c-8.008,42.998-16.006,60-30,62.998c-23.008,5.996-24.004,12.002-4.004,27.002
				c14.004,10,10.996,30-20,170.996c-19.004,87.002-32.002,162.002-27.002,166.001c4.004,3.999,32.002,8.999,62.002,11.001
				L-3825,2295l25.996-155l25.801-153.496c-19.297-4.609-32.803,49.297-61.797,223.496c-3.008,18.999-10,41.001-16.006,47.998
				c-13.994,16.001-42.998,15-57.998-2.998c-14.004-17.002-4.004-57.998,12.998-48.999c9.004,5,9.004,3.999,1.006-5
				c-9.004-10-8.008-27.002,2.998-68.999c7.998-32.002,18.994-87.998,23.994-127.002c6.006-37.998,14.004-79.004,19.004-90
				s14.004-50.996,20-89.004c12.002-76.992,25.996-96.992,65-93.994c34.004,2.998,40,15,55,107.998
				c7.002,40.996,17.002,85.996,22.998,100c5,14.004,11.006,45.996,12.998,72.002c2.002,25.996,11.006,72.998,19.004,105
				c17.002,63.999,19.004,88.999,7.998,95.996c-5,2.002-2.002,2.002,5,1.001c6.006-1.997,12.002,3.999,12.002,13.999
				c0,9.004,2.998,27.002,5.996,40c6.006,20,3.008,22.002-30,22.002c-20,0-35.996-1.001-35.996-2.998c0-2.002-10.996-55-25-119.004
				c-12.998-63.994-22.002-125.996-20-137.998c2.002-12.998,2.002-20-2.002-17.002c-2.998,2.998-12.998-2.998-22.002-13.994
				c-5.391-6.699-10.293-11.104-14.697-12.305l26.699,136.299c15,76.001,27.002,146.001,27.002,157.002
				c0,23.999,15,32.998,70,41.001C-3624.004,2323.999-3601.006,2327.998-3596.006,2328.999z"/>
			<path fill="#010202" stroke="#010202" stroke-miterlimit="10" d="M-3653.008,2290c33.008,0,36.006-2.002,30-22.002
				c-2.998-12.998-5.996-30.996-5.996-40c0-10-5.996-15.996-12.002-13.999c-7.002,1.001-10,1.001-5-1.001
				c11.006-6.997,9.004-31.997-7.998-95.996c-7.998-32.002-17.002-79.004-19.004-105c-1.992-26.006-7.998-57.998-12.998-72.002
				c-5.996-14.004-15.996-59.004-22.998-100c-15-92.998-20.996-105-55-107.998c-39.004-2.998-52.998,17.002-65,93.994
				c-5.996,38.008-15,78.008-20,89.004s-12.998,52.002-19.004,90c-5,39.004-15.996,95-23.994,127.002
				c-11.006,41.997-12.002,58.999-2.998,68.999c7.998,8.999,7.998,10-1.006,5c-17.002-8.999-27.002,31.997-12.998,48.999
				c15,17.998,44.004,18.999,57.998,2.998c6.006-6.997,12.998-28.999,16.006-47.998c28.994-174.199,42.5-228.105,61.797-223.496
				l0.195-1.504l0.303,1.699c4.404,1.201,9.307,5.605,14.697,12.305c9.004,10.996,19.004,16.992,22.002,13.994
				c4.004-2.998,4.004,4.004,2.002,17.002c-2.002,12.002,7.002,74.004,20,137.998c14.004,64.004,25,117.002,25,119.004
				C-3689.004,2288.999-3673.008,2290-3653.008,2290z"/>
			<path fill="#010202" d="M-3773.203,1986.504c0.098,0,0.293,0,0.498,0.195l-0.303-1.699L-3773.203,1986.504z"/>
			<path fill="#010202" d="M-3994.004,1800.996c10-8.994,4.004-110-5.996-116.992c-9.004-5-303.008-43.008-341.006-44.004
				c-5,0-7.998,49.004-7.998,110c0,16.504-0.098,30.703-0.4,42.998l17.803,0.205c0.195-6.201,0.391-12.705,0.596-19.199
				l2.998-106.006l47.002,6.006c26.006,2.998,81.006,8.994,122.002,11.992c40.996,4.004,77.998,12.002,82.002,18.008
				c5,7.998,7.998,6.992,7.998-1.006c0-10,5.996-10,25-0.996c17.998,7.998,25,18.994,25,40v28.994l-112.002-2.998l-112.998-2.998
				v39.004h15c0-28.008,2.002-28.008,137.998-10C-4040,1800-3996.006,1804.004-3994.004,1800.996z"/>
			<path fill="#010202" d="M-4004.004,2275c12.002-2.002,19.004-105,7.998-116.001c-3.994-3.999-58.994-13.999-120-21.001
				l-112.998-11.997l-12.598,0.4c12.1,23.696,36.699,33.599,76.602,33.599c21.992,0,65,2.998,93.994,6.001l52.002,6.997v40
				c0,36.001-2.002,38.003-17.002,26.001c-10.996-10-13.994-10-8.994-1.001c7.998,13.003,3.994,13.003-64.004,2.002
				c-25-3.999-75.996-10-114.004-13.999c-110.996-10-105.996-1.001-102.998-186.001c1.006-87.998,0-160-2.998-160
				c-2.695,0-3.701-37.803-2.598-86.797l-17.803-0.205c-1.104,53.105-5,69.307-15.596,75c-14.004,7.998-14.004,10,0,21.006
				c12.998,10.996,15.996,40.996,15.996,177.998c0,121.997,2.998,165,12.998,167.998c6.006,2.998,82.002,12.998,167.002,23.999
				C-4084.004,2268.999-4009.004,2276.001-4004.004,2275z"/>
			<path fill="#010202" stroke="#010202" stroke-miterlimit="10" d="M-4019.004,1770.996v-28.994c0-21.006-7.002-32.002-25-40
				c-19.004-9.004-25-9.004-25,0.996c0,7.998-2.998,9.004-7.998,1.006c-4.004-6.006-41.006-14.004-82.002-18.008
				c-40.996-2.998-95.996-8.994-122.002-11.992l-47.002-6.006l-2.998,106.006c-0.205,6.494-0.4,12.998-0.596,19.199
				c-1.104,48.994-0.098,86.797,2.598,86.797c2.998,0,4.004,72.002,2.998,160c-2.998,185-7.998,176.001,102.998,186.001
				c38.008,3.999,89.004,10,114.004,13.999c67.998,11.001,72.002,11.001,64.004-2.002c-5-8.999-2.002-8.999,8.994,1.001
				c15,12.002,17.002,10,17.002-26.001v-40l-52.002-6.997C-4100,2162.998-4143.008,2160-4165,2160
				c-39.902,0-64.502-9.902-76.602-33.599c-6.797-13.003-9.805-30.308-9.404-52.397c0-122.002,0-122.002,32.002-138.008
				c17.002-7.998,30-10,30-5s12.002,9.004,25.996,9.004c14.004,0,23.008-4.004,19.004-10c-2.998-5-0.996-10,4.004-10
				c5.996,0,10.996-4.004,10.996-10c0-19.004-35.996-45-75-55c-37.998-10-40-12.002-40-50v-0.996V1765l112.998,2.998
				L-4019.004,1770.996z"/>
			<path fill="#010202" d="M-4109.004,1910c0-65.996,0.996-65-72.002-75c-42.002-5-47.998-9.004-47.998-30.996h-15V1805
				c0,37.998,2.002,40,40,50c39.004,10,75,35.996,75,55c0,5.996-5,10-10.996,10c-5,0-7.002,5-4.004,10c4.004,5.996-5,10-19.004,10
				c-13.994,0-25.996-4.004-25.996-9.004s-12.998-2.998-30,5c-32.002,16.006-32.002,16.006-32.002,138.008
				c-0.4,22.09,2.607,39.395,9.404,52.397l12.598-0.4v-88.003c0-85.996,0.996-87.998,22.998-83.994
				c12.002,2.998,39.004,7.998,60,10.996l37.002,5.996V1910z"/>
			<path fill="#010202" d="M-4462.002,2176.001c22.998-27.002,22.998-31.001,22.998-255.005c0-215.996-1.001-230-21.001-255
				c-31.997-40-52.998-46.992-196-65l-132.998-16.992v107.998c0,90-2.998,108.994-17.002,115.996
				c-15.996,9.004-15.996,11.006,0,27.002c15,14.004,17.002,40,17.002,180v163.999l42.998,5c23.003,3.003,69.004,10,102.002,15
				C-4546.006,2215-4489.004,2207.002-4462.002,2176.001z M-4459.004,1707.002v210.996c0,216.001-2.998,242.002-25,242.002
				c-7.002,0-15,3.999-17.002,7.998c-5.996,15-50.996,19.004-122.998,10c-122.002-15-132.998-17.998-138.999-35
				c-7.002-17.998-8.999-522.998-2.002-530c3.003-3.994,100,7.998,181,22.002c11.001,2.002,27.998,4.004,37.002,4.004
				c8.999,0.996,32.998,15.996,51.997,35L-4459.004,1707.002z"/>
			<path fill="#010202" stroke="#010202" stroke-miterlimit="10" d="M-4459.004,1917.998v-210.996l-36.001-32.998
				c-18.999-19.004-42.998-34.004-51.997-35c-9.004,0-26.001-2.002-37.002-4.004c-81-14.004-177.998-25.996-181-22.002
				c-6.997,7.002-5,512.002,2.002,530c6.001,17.002,16.997,20,138.999,35c72.001,9.004,117.001,5,122.998-10
				c2.002-3.999,10-7.998,17.002-7.998C-4462.002,2160-4459.004,2133.999-4459.004,1917.998z M-4532.002,1909.004
				c3.999,165.996,2.998,170-19.004,185c-11.997,8.994-25,15.996-27.998,15c-2.998-1.006-25-5-48.999-10
				c-25-5-48.003-12.002-52.002-16.006c-3.999-5-8.999-85.996-10-180.996c-1.997-202.998-1.997-204.004,78.999-192.998
				c29.003,3.994,58.002,12.998,64.003,18.994C-4539.004,1735.996-4534.004,1795.996-4532.002,1909.004z"/>
			<path fill="#010202" d="M-4551.006,2094.004c22.002-15,23.003-19.004,19.004-185c-2.002-113.008-7.002-173.008-15-181.006
				c-6.001-5.996-35-15-64.003-18.994c-80.996-11.006-80.996-10-78.999,192.998c1.001,95,6.001,175.996,10,180.996
				c3.999,4.004,27.002,11.006,52.002,16.006c23.999,5,46,8.994,48.999,10C-4576.006,2110-4563.003,2102.998-4551.006,2094.004z
				 M-4559.004,1909.004c0,92.998-2.998,170.996-7.002,172.998c-7.998,3.994-41.997,0.996-80-7.002
				c-22.998-5-22.998-7.002-22.998-179.004v-173.994l42.998,5c23.003,2.002,48.002,5.996,55,8.994
				C-4562.002,1737.998-4559.004,1782.002-4559.004,1909.004z"/>
		</g>
	</g>
</g>
<g transform="translate(0.000000,302.000000) scale(0.100000,-0.100000)">
	<g id="XMLID_2_">
		<g>
			<path fill="#8B162D" d="M2691.973,1583.95c7.002-121.006,1.299-123.105-79.697-129.102l-45-4.004l-2.998,89.004l-3.008,87.998
				l-36.992-6.006c-20-2.998-45-5.996-54.004-5.996c-15.996,0-17.998-10.996-17.998-89.004v-87.998l-31.006-7.002
				c-16.992-2.998-43.994-5.996-60-5.996h-28.994v109.004c0,93.994-2.002,110-17.002,115.996c-17.002,5.996-17.002,7.002,0,15.996
				c15,9.004,17.002,28.003,17.002,179.004v168.999l32.998,5c17.002,3.003,59.004,10,92.002,15
				c120.996,18.003,160.996,13.999,197.002-17.998l16.992-21.802c3.799-6.602,6.699-13.398,7.5-21.499
				c0.107-0.601,0.205-1.201,0.303-1.802c0-0.2,0.205-0.498,0.303-0.698l6.895-112.202c-0.996-70,11.299-150.498-36.201-152.397
				C2694.17,1700.244,2687.569,1640.844,2691.973,1583.95z M2664.278,1489.848l-53.604,207.197
				c-0.898,66.099,50.596,87.798,50.596,153.799c0,67.998-3.994,121.001-10,122.998c-5,2.002-6.992,7.002-3.994,12.002
				c2.998,3.999-1.006,12.002-7.998,17.998c-14.004,11.001-101.006,25-109.004,17.002c-2.998-2.998-32.002-7.998-64.004-10
				c-31.992-2.002-70.996-7.002-86.992-11.001l-28.008-6.001l1.006-90.996c0.996-51.001,2.002-155,0.996-232.002
				c0-227.998-2.002-214.004,27.998-210c14.004,0.996,32.002,2.998,39.004,4.004c7.998,0.996,12.002,22.998,12.002,75
				c0,87.998,7.998,97.998,85,103.994c47.002,4.004,53.994,2.002,65-17.998c5.996-12.002,10.996-42.002,10-67.998
				c-2.998-74.004-2.998-72.998,35.996-70L2664.278,1489.848z"/>
			<path fill="#8B162D" stroke="#8B162C" stroke-miterlimit="10" stroke-width="10px" d="M2610.674,1697.046l53.604-207.197l-36.006-2.002
				c-38.994-2.998-38.994-4.004-35.996,70c0.996,25.996-4.004,55.996-10,67.998c-11.006,20-17.998,22.002-65,17.998
				c-77.002-5.996-85-15.996-85-103.994c0-52.002-4.004-74.004-12.002-75c-7.002-1.006-25-3.008-39.004-4.004
				c-30-4.004-27.998-17.998-27.998,210c1.006,77.002,0,181.001-0.996,232.002l-1.006,90.996l28.008,6.001
				c15.996,3.999,55,8.999,86.992,11.001c32.002,2.002,61.006,7.002,64.004,10c7.998,7.998,95-6.001,109.004-17.002
				c6.992-5.996,10.996-13.999,7.998-17.998c-2.998-5-1.006-10,3.994-12.002c6.006-1.997,10-55,10-122.998
				C2661.27,1784.843,2609.776,1763.144,2610.674,1697.046z M2509.473,1720.844c67.002,8.999,80,28.999,80,121.001
				c0,96.997-20,113.999-115,96.001c-40-8.003-45-22.002-45-112.002C2429.473,1719.843,2436.475,1710.844,2509.473,1720.844z"/>
			<path fill="#8B162D" d="M2589.473,1841.845c0-92.002-12.998-112.002-80-121.001c-72.998-10-80-1.001-80,105
				c0,90,5,103.999,45,112.002C2569.473,1955.844,2589.473,1938.842,2589.473,1841.845z M2492.471,1741.845
				c69.004,8.999,67.002,6.001,67.002,92.998c0,43.999-2.998,81.001-7.002,83.003c-5,1.997-28.994,1.997-55,0l-47.998-3.003v-90
				v-88.999L2492.471,1741.845z"/>
			<path fill="#8B162D" d="M2247.471,1663.842c9.004-7.998,10-12.998,1.006-17.998c-6.006-4.004-12.002-40-14.004-84.004
				c-2.998-80-15.996-112.998-57.998-140.996c-27.998-17.998-114.004-35-182.998-35.996c-86.006-2.002-114.004,30-114.004,130.996
				c0,37.998-5,64.004-14.004,72.998c-10.996,11.006-11.992,17.002-2.998,26.006c7.998,7.998,14.004,62.998,17.002,150.996
				c5,127.998,7.002,140,27.998,162.998c30,32.002,62.002,45,137.002,56.001c110,17.002,167.002-1.997,184.004-61.997
				c5-17.002,7.998-81.001,6.992-140C2234.473,1703.842,2237.471,1671.84,2247.471,1663.842z M2194.473,1481.84
				c12.998,14.004,20.996,94.004,17.998,179.004c-0.996,10.996-2.002,68.999-2.998,127.998c-2.998,125-7.002,147.002-27.002,147.002
				c-7.998,0-12.002,3.999-8.994,8.999c2.998,5-1.006,12.002-10,15c-19.004,7.002-95,6.001-150-2.998
				c-28.008-5-53.008-18.003-75-41.001l-34.004-32.998l-2.998-116.001c-4.004-201.997-1.006-303.003,7.998-321.997
				c10.996-20,69.004-42.002,90.996-35c8.008,2.998,43.008,6.992,79.004,10c42.002,2.998,69.004,10.996,75.996,20
				c6.006,8.994,14.004,12.998,17.002,8.994c4.004-2.998,7.002-0.996,7.002,6.006
				C2179.473,1461.84,2186.475,1473.842,2194.473,1481.84z"/>
			<path fill="#8B162D" stroke="#8B162C" stroke-miterlimit="10" stroke-width="5px" d="M2212.471,1660.844c2.998-85-5-165-17.998-179.004
				c-7.998-7.998-15-20-15-26.992c0-7.002-2.998-9.004-7.002-6.006c-2.998,4.004-10.996,0-17.002-8.994
				c-6.992-9.004-33.994-17.002-75.996-20c-35.996-3.008-70.996-7.002-79.004-10c-21.992-7.002-80,15-90.996,35
				c-9.004,18.994-12.002,120-7.998,321.997l2.998,116.001l34.004,32.998c21.992,22.998,46.992,36.001,75,41.001
				c55,8.999,130.996,10,150,2.998c8.994-2.998,12.998-10,10-15c-3.008-5,0.996-8.999,8.994-8.999
				c20,0,24.004-22.002,27.002-147.002C2210.469,1729.843,2211.475,1671.84,2212.471,1660.844z M2116.475,1511.84
				c22.002,22.002,22.998,27.002,20,186.006c-1.006,90-6.006,168.999-10,175.996c-12.998,19.004-111.006,16.001-129.004-5
				c-2.803-3.096-5.303-7.3-7.402-13.398c-7.393-21.499-10.693-65.801-14.6-159.6c-4.6-125.4-4.492-174.004,16.201-193.203
				c11.006-10.195,27.803-12.09,52.803-12.793C2082.471,1488.842,2097.471,1493.842,2116.475,1511.84z"/>
			<path fill="#8B162D" d="M2136.475,1697.846c2.998-159.004,2.002-164.004-20-186.006c-19.004-17.998-34.004-22.998-72.002-21.992
				c-25,0.703-41.797,2.598-52.803,12.793l7.803,1.201l30.996,6.006c17.002,2.998,42.002,5.996,55,5.996h24.004v175v175
				l-22.002-2.002c-12.998,0-37.998-2.998-55-5l-32.998-3.999l-9.404,0.601c2.1,6.099,4.6,10.303,7.402,13.398
				c17.998,21.001,116.006,24.004,129.004,5C2130.469,1866.845,2135.469,1787.846,2136.475,1697.846z"/>
			<path fill="#8B162D" d="M1999.473,1678.842v-175l-7.803-1.201c-20.693,19.199-20.801,67.803-16.201,193.203
				c3.906,93.799,7.207,138.101,14.6,159.6l9.404-0.601V1678.842L1999.473,1678.842z"/>
			<path fill="#8B162D" d="M1744.473,1499.848c32.002-74.004,55.996-136.006,54.004-138.008c-2.002-1.992-29.004-6.992-60-10
				l-56.006-6.992l-32.998,77.998c-30.195,70.303-38.799,89.199-50.195,90.303l1.494,18.896c2.9,0,5.4-0.498,7.705-1.201
				c10-2.998,25.996-24.004,35.996-45.996c12.998-29.004,20.996-36.006,27.998-27.002c6.006,8.994,7.002,7.998,2.998-5
				c-2.998-10,1.006-31.006,9.004-47.998c12.002-22.002,22.002-29.004,45-29.004c37.998,0,37.998,10,2.002,90.996
				c-30,67.002-44.004,101.006-46.006,109.004c-0.996,2.998-7.998,15.996-15,27.998c-7.998,15-10,34.004-5,50
				c4.004,15,8.008,32.002,8.008,37.002c0.996,6.001,5,12.998,8.994,16.001c7.002,5,72.998,173.999,80,203.999
				c1.006,5-7.998,11.001-18.994,12.998c-36.006,5-79.004-50.996-70-90.996c2.998-12.002,2.998-16.001-1.006-8.003
				c-2.998,8.999-20-21.997-42.002-78.999c-18.398-47.598-35-80.703-48.896-97.9l-5.4,0.498c2.1,2.803,3.301,7.402,3.301,12.402
				c0,19.004,89.004,255,102.002,272.002c5,6.997,27.998,13.999,50.996,15.996c22.998,2.002,47.998,4.004,55,5
				c6.006,1.001,12.002-0.996,12.002-5c0-5-25-76.997-55.996-160.996l-57.002-152.998L1744.473,1499.848z"/>
			<path fill="#8B162D" stroke="#8B162C" stroke-width="5px" stroke-miterlimit="10" d="M1743.477,1923.842c10.996-1.997,20-7.998,18.994-12.998
				c-7.002-30-72.998-198.999-80-203.999c-3.994-3.003-7.998-10-8.994-16.001c0-5-4.004-22.002-8.008-37.002
				c-5-15.996-2.998-35,5-50c7.002-12.002,14.004-25,15-27.998c2.002-7.998,16.006-42.002,46.006-109.004
				c35.996-80.996,35.996-90.996-2.002-90.996c-22.998,0-32.998,7.002-45,29.004c-7.998,16.992-12.002,37.998-9.004,47.998
				c4.004,12.998,3.008,13.994-2.998,5c-7.002-9.004-15-2.002-27.998,27.002c-10,21.992-25.996,42.998-35.996,45.996
				c-2.305,0.703-4.805,1.201-7.705,1.201c-19.697,1.104-50.596-12.002-52.295-24.199c-1.006-7.998-7.002-116.006-8.008-144.004
				c-0.996-13.994-10-17.998-35.996-17.998h-35l-0.996,97.998c-3.008,226.006,2.998,428.003,12.998,439.004
				c5.996,6.997,20.996,11.997,33.994,10.996c19.004-1.997,24.004-7.998,25-32.998c6.006-168.999,9.004-217.998,14.004-222.998
				c7.002-7.002,16.201-3.408,27.1,10.098c13.896,17.197,30.498,50.303,48.896,97.9c22.002,57.002,39.004,87.998,42.002,78.999
				c4.004-7.998,4.004-3.999,1.006,8.003C1664.473,1872.846,1707.471,1928.842,1743.477,1923.842z"/>
			<path fill="#8B162D" d="M1600.772,1532.046l-1.494-18.896c-3.701,0.391-7.705-1.104-12.803-3.301
				c-14.004-5-17.002-21.006-17.002-90c0-94.004,0.996-93.008-74.004-96.006l-47.998-2.998l1.006,100.996
				c1.992,77.002-1.006,105-12.002,116.006c-12.998,12.002-12.998,17.002,0,33.994c10.996,15,13.994,52.002,12.002,176.006
				c-1.006,86.997-1.006,158.999,1.992,161.997c2.002,2.002,30,7.002,63.008,11.001l57.998,7.002l-4.004-141.001
				c-2.002-78.003,0-141.001,4.004-141.001c1.895,0,3.496,0.996,4.697,2.598l5.4-0.498c-10.898-13.506-20.098-17.1-27.1-10.098
				c-5,5-7.998,53.999-14.004,222.998c-0.996,25-5.996,31.001-25,32.998c-12.998,1.001-27.998-3.999-33.994-10.996
				c-10-11.001-16.006-212.998-12.998-439.004l0.996-97.998h35c25.996,0,35,4.004,35.996,17.998
				c1.006,27.998,7.002,136.006,8.008,144.004C1550.176,1520.044,1581.075,1533.149,1600.772,1532.046z"/>
			<path fill="#010202" d="M1362.471,1904.843c11.006,2.002,9.004-13.999-25.996-181.997c-32.998-155-32.998-157.998-14.004-172.002
				c17.998-12.998,17.998-12.998-2.002-20c-21.992-7.002-31.992-35-51.992-150c-7.002-37.998-17.002-75-23.008-80.996
				c-5.996-6.006-33.994-14.004-62.998-17.002l-50.996-6.006l-11.006,47.002c-5,26.006-15,72.998-21.992,106.006
				c-8.008,42.998-16.006,60-30,62.998c-23.008,5.996-24.004,12.002-4.004,27.002c14.004,10,10.996,30-20,170.996
				c-19.004,87.002-32.002,162.002-27.002,166.001c4.004,3.999,32.002,8.999,62.002,11.001l54.004,2.998l25.996-155l25.8-153.496
				c-19.297-4.609-32.802,49.297-61.796,223.496c-3.008,18.999-10,41.001-16.006,47.998c-13.994,16.001-42.998,15-57.998-2.998
				c-14.004-17.002-4.004-57.998,12.998-48.999c9.004,5,9.004,3.999,1.006-5c-9.004-10-8.008-27.002,2.998-68.999
				c7.998-32.002,18.994-87.998,23.994-127.002c6.006-37.998,14.004-79.004,19.004-90s14.004-50.996,20-89.004
				c12.002-76.992,25.996-96.992,65-93.994c34.004,2.998,40,15,55,107.998c7.002,40.996,17.002,85.996,22.998,100
				c5,14.004,11.006,45.996,12.998,72.002c2.002,25.996,11.006,72.998,19.004,105c17.002,63.999,19.004,88.999,7.998,95.996
				c-5,2.002-2.002,2.002,5,1.001c6.006-1.997,12.002,3.999,12.002,13.999c0,9.004,2.998,27.002,5.996,40
				c6.006,20,3.008,22.002-30,22.002c-20,0-35.996-1.001-35.996-2.998c0-2.002-10.996-55-25-119.004
				c-12.998-63.994-22.002-125.996-20-137.998c2.002-12.998,2.002-20-2.002-17.002c-2.998,2.998-12.998-2.998-22.002-13.994
				c-5.391-6.699-10.293-11.104-14.697-12.305l26.699,136.299c15,76.001,27.002,146.001,27.002,157.002
				c0,23.999,15,32.998,70,41.001C1334.473,1899.843,1357.471,1903.842,1362.471,1904.843z"/>
			<path fill="#010202" stroke="#010202" stroke-miterlimit="10" stroke-width="5px" d="M1305.469,1865.844c33.008,0,36.006-2.002,30-22.002
				c-2.998-12.998-5.996-30.996-5.996-40c0-10-5.996-15.996-12.002-13.999c-7.002,1.001-10,1.001-5-1.001
				c11.006-6.997,9.004-31.997-7.998-95.996c-7.998-32.002-17.002-79.004-19.004-105c-1.992-26.006-7.998-57.998-12.998-72.002
				c-5.996-14.004-15.996-59.004-22.998-100c-15-92.998-20.996-105-55-107.998c-39.003-2.998-52.998,17.002-65,93.994
				c-5.996,38.008-15,78.008-20,89.004s-12.998,52.002-19.004,90c-5,39.004-15.996,95-23.994,127.002
				c-11.006,41.997-12.002,58.999-2.998,68.999c7.998,8.999,7.998,10-1.006,5c-17.002-8.999-27.002,31.997-12.998,48.999
				c15,17.998,44.004,18.999,57.998,2.998c6.006-6.997,12.998-28.999,16.006-47.998c28.994-174.199,42.5-228.105,61.796-223.496
				l0.195-1.504l0.303,1.699c4.404,1.201,9.307,5.605,14.697,12.305c9.004,10.996,19.004,16.992,22.002,13.994
				c4.004-2.998,4.004,4.004,2.002,17.002c-2.002,12.002,7.002,74.004,20,137.998c14.004,64.004,25,117.002,25,119.004
				C1269.473,1864.843,1285.469,1865.844,1305.469,1865.844z"/>
			<path fill="#010202" d="M1185.274,1562.348c0.098,0,0.293,0,0.498,0.195l-0.303-1.699L1185.274,1562.348z"/>
			<path fill="#010202" d="M964.474,1376.84c10-8.994,4.004-110-5.996-116.992c-9.004-5-303.008-43.008-341.006-44.004
				c-5,0-7.998,49.004-7.998,110c0,16.504-0.098,30.703-0.4,42.998l17.803,0.205c0.195-6.201,0.391-12.705,0.596-19.199
				l2.998-106.006l47.002,6.006c26.006,2.998,81.006,8.994,122.002,11.992c40.996,4.004,77.998,12.002,82.002,18.008
				c5,7.998,7.998,6.992,7.998-1.006c0-10,5.996-10,25-0.996c17.998,7.998,25,18.994,25,40v28.994l-112.002-2.998l-112.998-2.998
				v39.004h15c0-28.008,2.002-28.008,137.998-10C918.478,1375.844,962.472,1379.848,964.474,1376.84z"/>
			<path fill="#010202" d="M954.474,1850.844c12.002-2.002,19.004-105,7.998-116.001c-3.994-3.999-58.994-13.999-120-21.001
				l-112.998-11.997l-12.598,0.4c12.1,23.696,36.699,33.599,76.602,33.599c21.992,0,65,2.998,93.994,6.001l52.002,6.997v40
				c0,36.001-2.002,38.003-17.002,26.001c-10.996-10-13.994-10-8.994-1.001c7.998,13.003,3.994,13.003-64.004,2.002
				c-25-3.999-75.996-10-114.004-13.999c-110.996-10-105.996-1.001-102.998-186.001c1.006-87.998,0-160-2.998-160
				c-2.695,0-3.701-37.803-2.598-86.797l-17.803-0.205c-1.104,53.105-5,69.307-15.596,75c-14.004,7.998-14.004,10,0,21.006
				c12.998,10.996,15.996,40.996,15.996,177.998c0,121.997,2.998,165,12.998,167.998c6.006,2.998,82.002,12.998,167.002,23.999
				C874.474,1844.843,949.474,1851.845,954.474,1850.844z"/>
			<path fill="#010202" stroke="#010202" stroke-miterlimit="10" stroke-width="5px" d="M939.474,1346.84v-28.994c0-21.006-7.002-32.002-25-40
				c-19.004-9.004-25-9.004-25,0.996c0,7.998-2.998,9.004-7.998,1.006c-4.004-6.006-41.006-14.004-82.002-18.008
				c-40.996-2.998-95.996-8.994-122.002-11.992l-47.002-6.006l-2.998,106.006c-0.205,6.494-0.4,12.998-0.596,19.199
				c-1.104,48.994-0.098,86.797,2.598,86.797c2.998,0,4.004,72.002,2.998,160c-2.998,185-7.998,176.001,102.998,186.001
				c38.008,3.999,89.004,10,114.004,13.999c67.998,11.001,72.002,11.001,64.004-2.002c-5-8.999-2.002-8.999,8.994,1.001
				c15,12.002,17.002,10,17.002-26.001v-40l-52.002-6.997c-28.994-3.003-72.002-6.001-93.994-6.001
				c-39.902,0-64.502-9.902-76.602-33.599c-6.797-13.003-9.805-30.308-9.404-52.397c0-122.002,0-122.002,32.002-138.008
				c17.002-7.998,30-10,30-5s12.002,9.004,25.996,9.004c14.004,0,23.008-4.004,19.004-10c-2.998-5-0.996-10,4.004-10
				c5.996,0,10.996-4.004,10.996-10c0-19.004-35.996-45-75-55c-37.998-10-40-12.002-40-50v-0.996v-39.004l112.998,2.998
				L939.474,1346.84z"/>
			<path fill="#010202" d="M849.474,1485.844c0-65.996,0.996-65-72.002-75c-42.002-5-47.998-9.004-47.998-30.996h-15v0.996
				c0,37.998,2.002,40,40,50c39.004,10,75,35.996,75,55c0,5.996-5,10-10.996,10c-5,0-7.002,5-4.004,10c4.004,5.996-5,10-19.004,10
				c-13.994,0-25.996-4.004-25.996-9.004s-12.998-2.998-30,5c-32.002,16.006-32.002,16.006-32.002,138.008
				c-0.4,22.09,2.607,39.395,9.404,52.397l12.598-0.4v-88.003c0-85.996,0.996-87.998,22.998-83.994
				c12.002,2.998,39.004,7.998,60,10.996l37.002,5.996V1485.844z"/>
			<path fill="#010202" d="M496.476,1751.845c22.998-27.002,22.998-31.001,22.998-255.005c0-215.996-1.006-230-21.006-255
				c-31.992-40-52.988-46.992-195.996-65l-132.998-16.992v107.998c0,90-2.998,108.994-17.002,115.996
				c-15.996,9.004-15.996,11.006,0,27.002c15,14.004,17.002,40,17.002,180v163.999l42.998,5c23.008,3.003,69.004,10,102.002,15
				C412.472,1790.844,469.474,1782.846,496.476,1751.845z M499.474,1282.846v210.996c0,216.001-2.998,242.002-25,242.002
				c-7.002,0-15,3.999-17.002,7.998c-5.996,15-50.996,19.004-122.998,10c-122.002-15-132.998-17.998-138.994-35
				c-7.012-17.998-9.004-522.998-2.012-530c3.008-3.994,100,7.998,181.006,22.002c11.006,2.002,27.998,4.004,37.002,4.004
				c9.004,0.996,32.998,15.996,51.992,35L499.474,1282.846z"/>
			<path fill="#010202" stroke="#010202" stroke-miterlimit="10" stroke-width="5px" d="M499.474,1493.842v-210.996l-36.006-32.998
				c-18.994-19.004-42.988-34.004-51.992-35c-9.004,0-25.996-2.002-37.002-4.004c-81.006-14.004-177.998-25.996-181.006-22.002
				c-6.992,7.002-5,512.002,2.012,530c5.996,17.002,16.992,20,138.994,35c72.002,9.004,117.002,5,122.998-10
				c2.002-3.999,10-7.998,17.002-7.998C496.476,1735.844,499.474,1709.843,499.474,1493.842z M426.476,1484.848
				c4.004,165.996,2.998,170-19.004,185c-11.992,8.994-25,15.996-27.998,15c-2.998-1.006-25-5-48.994-10
				c-25-5-48.008-12.002-52.012-16.006c-3.994-5-8.994-85.996-10-180.996c-1.992-202.998-1.992-204.004,79.004-192.998
				c29.004,3.994,58.008,12.998,64.004,18.994C419.474,1311.84,424.474,1371.84,426.476,1484.848z"/>
			<path fill="#010202" d="M407.472,1669.848c22.002-15,23.008-19.004,19.004-185c-2.002-113.008-7.002-173.008-15-181.006
				c-5.996-5.996-35-15-64.004-18.994c-80.996-11.006-80.996-10-79.004,192.998c1.006,95,6.006,175.996,10,180.996
				c4.004,4.004,27.012,11.006,52.012,16.006c23.994,5,45.996,8.994,48.994,10C382.472,1685.844,395.479,1678.842,407.472,1669.848z
				 M399.474,1484.848c0,92.998-2.998,170.996-7.002,172.998c-7.998,3.994-41.992,0.996-80-7.002
				c-22.998-5-22.998-7.002-22.998-179.004v-173.994l42.998,5c23.008,2.002,48.008,5.996,55,8.994
				C396.476,1313.842,399.474,1357.846,399.474,1484.848z"/>
		</g>
	</g>
</g>
</svg>
